<svg width="28" height="29" viewBox="0 0 28 29" fill="none" xmlns="http://www.w3.org/2000/svg">
<path d="M4.97895 22.4855C5.24131 24.4342 6.85532 25.9608 8.81944 26.0511C10.4722 26.127 12.151 26.1667 13.9998 26.1667C15.8487 26.1667 17.5275 26.127 19.1802 26.0511C21.1444 25.9608 22.7584 24.4342 23.0207 22.4855C23.192 21.2138 23.3332 19.9105 23.3332 18.5833C23.3332 17.2561 23.192 15.9529 23.0207 14.6812C22.7584 12.7325 21.1444 11.2059 19.1802 11.1156C17.5275 11.0396 15.8487 11 13.9998 11C12.151 11 10.4722 11.0396 8.81944 11.1156C6.85532 11.2059 5.24131 12.7325 4.97895 14.6812C4.80773 15.9529 4.6665 17.2561 4.6665 18.5833C4.6665 19.9105 4.80773 21.2138 4.97895 22.4855Z" stroke="#9E9E9E" stroke-width="1.75"/>
<path d="M8.75 11V8.08337C8.75 5.18388 11.1005 2.83337 14 2.83337C16.8995 2.83337 19.25 5.18388 19.25 8.08337V11" stroke="#9E9E9E" stroke-width="1.75" stroke-linecap="round" stroke-linejoin="round"/>
<path d="M18.6665 18.5717V18.5833" stroke="#9E9E9E" stroke-width="2.33333" stroke-linecap="round" stroke-linejoin="round"/>
<path d="M14 18.5717V18.5833" stroke="#9E9E9E" stroke-width="2.33333" stroke-linecap="round" stroke-linejoin="round"/>
<path d="M9.3335 18.5717V18.5833" stroke="#9E9E9E" stroke-width="2.33333" stroke-linecap="round" stroke-linejoin="round"/>
</svg>
