<svg width="28" height="29" viewBox="0 0 28 29" fill="none" xmlns="http://www.w3.org/2000/svg">
<path d="M8.1665 10.4167L11.5989 12.446C13.5999 13.6292 14.3998 13.6292 16.4008 12.446L19.8332 10.4167" stroke="#616161" stroke-width="1.75" stroke-linecap="round" stroke-linejoin="round"/>
<path d="M2.35189 16.2215C2.42817 19.7979 2.46629 21.5862 3.78594 22.9108C5.1056 24.2356 6.94222 24.2816 10.6155 24.3739C12.8794 24.4309 15.121 24.4309 17.3849 24.3739C21.0582 24.2816 22.8947 24.2356 24.2143 22.9108C25.5341 21.5862 25.5722 19.7979 25.6484 16.2215C25.673 15.0715 25.673 13.9283 25.6484 12.7784C25.5722 9.20192 25.5341 7.41369 24.2143 6.08902C22.8947 4.76435 21.0582 4.71821 17.3849 4.62592C15.121 4.56903 12.8794 4.56903 10.6155 4.62591C6.94222 4.71819 5.1056 4.76433 3.78594 6.08901C2.46629 7.41368 2.42815 9.20191 2.35189 12.7783C2.32737 13.9283 2.32737 15.0715 2.35189 16.2215Z" stroke="#616161" stroke-width="1.75" stroke-linejoin="round"/>
</svg>
