<svg width="28" height="29" viewBox="0 0 28 29" fill="none" xmlns="http://www.w3.org/2000/svg">
<path d="M5.83325 11C5.83325 7.15024 5.83325 5.22533 7.02924 4.02936C8.22521 2.83337 10.1501 2.83337 13.9999 2.83337C17.8497 2.83337 19.7746 2.83337 20.9706 4.02936C22.1666 5.22533 22.1666 7.15024 22.1666 11V18C22.1666 21.8498 22.1666 23.7747 20.9706 24.9708C19.7746 26.1667 17.8497 26.1667 13.9999 26.1667C10.1501 26.1667 8.22521 26.1667 7.02924 24.9708C5.83325 23.7747 5.83325 21.8498 5.83325 18V11Z" stroke="#9E9E9E" stroke-width="1.75" stroke-linecap="round"/>
<path d="M12.8333 22.6666H15.1666" stroke="#9E9E9E" stroke-width="1.75" stroke-linecap="round" stroke-linejoin="round"/>
<path d="M10.5 2.83337L10.6038 3.4564C10.8289 4.80655 10.9414 5.48163 11.4044 5.89242C11.8874 6.32094 12.5721 6.33337 14 6.33337C15.4279 6.33337 16.1126 6.32094 16.5956 5.89242C17.0587 5.48163 17.1711 4.80655 17.3962 3.4564L17.5 2.83337" stroke="#9E9E9E" stroke-width="1.75" stroke-linejoin="round"/>
</svg>
